<?xml version="1.0" standalone="no"?>
<!DOCTYPE svg PUBLIC "-//W3C//DTD SVG 20010904//EN"
 "http://www.w3.org/TR/2001/REC-SVG-20010904/DTD/svg10.dtd">
<svg version="1.0" xmlns="http://www.w3.org/2000/svg"
 width="512.000000pt" height="512.000000pt" viewBox="0 0 512.000000 512.000000"
 preserveAspectRatio="xMidYMid meet">
<metadata>
Created by potrace 1.14, written by Peter Selinger 2001-2017
</metadata>
<g transform="translate(0.000000,512.000000) scale(0.100000,-0.100000)"
fill="#000000" stroke="none">
<path d="M4710 5103 c-84 -58 -257 -353 -304 -517 -36 -123 -37 -127 -42 -260
-2 -66 -6 -121 -7 -123 -2 -1 -14 16 -27 40 -33 59 -122 195 -156 237 -100
123 -270 265 -404 337 -129 70 -339 132 -443 133 -54 0 -103 -21 -111 -48 -6
-19 15 -144 40 -232 89 -317 301 -595 607 -793 131 -85 344 -188 467 -226 28
-9 43 -23 69 -68 18 -32 34 -69 36 -84 4 -32 -23 -94 -60 -134 -54 -60 -79
-108 -80 -155 -2 -66 -25 -162 -44 -184 -36 -40 -160 -97 -290 -133 -67 -18
-124 -54 -147 -92 -19 -31 -19 -31 -94 2 -54 24 -141 26 -184 4 -16 -9 -45
-31 -66 -50 -25 -24 -41 -33 -50 -27 -21 13 -90 4 -140 -19 -59 -27 -68 -26
-145 10 -69 33 -127 37 -175 13 -21 -10 -32 -9 -60 3 -41 17 -172 67 -250 95
-42 15 -85 20 -185 22 -71 1 -168 6 -215 10 -79 7 -89 6 -133 -17 -45 -23 -50
-24 -94 -11 -60 18 -164 18 -233 -1 -82 -22 -131 -19 -171 10 -66 47 -114 73
-145 78 -39 6 -117 -31 -157 -73 l-28 -30 -82 6 c-193 16 -227 9 -304 -61 -28
-25 -53 -37 -93 -45 -112 -21 -174 -71 -202 -161 -6 -23 -34 -62 -68 -98 -32
-33 -70 -82 -85 -109 -22 -41 -36 -54 -88 -78 -81 -38 -85 -55 -47 -180 l28
-95 -38 -19 c-63 -32 -105 -105 -95 -163 12 -63 11 -117 -1 -162 -7 -27 -13
-63 -14 -79 0 -30 35 -96 51 -96 5 0 9 -16 9 -35 0 -20 12 -59 26 -88 24 -47
26 -56 15 -95 -15 -56 -14 -93 2 -117 8 -11 19 -45 25 -75 15 -79 36 -121 89
-186 45 -56 47 -60 54 -145 10 -130 46 -171 156 -175 34 -2 75 -10 90 -18 16
-8 44 -17 63 -21 68 -12 75 -13 87 -14 20 -1 82 -61 115 -110 44 -64 102 -117
144 -131 49 -16 149 -8 200 17 40 19 40 19 156 -3 127 -25 148 -33 253 -102
60 -40 78 -47 131 -50 80 -5 144 22 240 104 l69 59 150 1 c83 1 188 4 235 7
47 4 105 1 130 -4 113 -26 284 -2 351 49 21 16 124 36 299 58 121 16 184 37
264 91 111 75 130 84 189 88 107 9 133 38 142 152 8 94 19 127 71 201 1 2 32
7 69 13 82 11 103 22 120 61 10 24 30 40 86 67 112 54 120 75 128 308 1 33 80
79 168 99 89 20 116 41 112 89 -3 27 5 44 39 86 23 28 43 63 43 78 4 64 -2
111 -21 166 -12 33 -23 76 -26 95 l-5 35 53 13 c56 13 115 53 136 93 18 33 7
103 -23 155 -32 55 -32 92 5 197 33 97 37 154 15 236 -10 40 -12 66 -5 95 13
58 12 127 -5 247 -8 58 -17 129 -21 159 -11 102 -44 235 -65 260 -72 90 -178
237 -178 245 -1 6 13 26 30 45 38 43 130 231 158 323 44 144 61 281 61 482 0
200 -16 365 -43 458 -19 68 -77 95 -127 60z"/>
<path d="M1896 4385 c-13 -13 -15 -28 -11 -68 8 -67 17 -81 71 -113 42 -25 47
-25 62 -11 15 15 17 40 13 128 -2 41 -31 68 -77 75 -31 4 -45 1 -58 -11z"/>
<path d="M1401 4203 c-122 -23 -143 -41 -155 -130 -3 -21 -8 -56 -12 -79 -11
-74 33 -189 137 -357 27 -43 49 -81 49 -83 0 -3 8 -17 19 -32 10 -15 42 -63
71 -107 90 -135 125 -156 224 -136 54 11 108 42 104 60 -1 3 1 44 6 91 6 77 4
98 -28 225 -19 77 -37 165 -41 195 -13 113 -16 136 -25 170 -16 61 -54 103
-131 147 -87 50 -119 55 -218 36z"/>
<path d="M2310 3757 c-61 -124 -58 -248 6 -308 22 -20 35 -24 87 -23 34 1 78
8 98 17 l37 15 -2 114 c-2 92 -7 122 -25 164 -22 51 -23 52 -84 64 -34 6 -67
13 -74 15 -7 2 -26 -24 -43 -58z"/>
<path d="M3639 3290 c-61 -17 -102 -63 -128 -143 -19 -55 10 -93 78 -103 52
-9 201 122 201 176 0 35 -103 83 -151 70z"/>
<path d="M300 3071 c-45 -47 -61 -103 -61 -212 0 -115 36 -179 102 -179 41 0
162 106 187 164 19 42 28 217 13 244 -11 20 -19 22 -108 22 l-96 0 -37 -39z"/>
<path d="M4635 965 c-16 -9 -36 -23 -42 -32 -16 -20 -17 -107 -3 -134 36 -66
194 -64 216 3 16 51 6 80 -42 130 -53 52 -78 59 -129 33z"/>
<path d="M4370 494 c-196 -30 -279 -68 -318 -144 -20 -38 -23 -55 -18 -112 5
-77 22 -115 67 -152 71 -60 146 -82 284 -85 249 -5 403 86 450 266 19 73 19
116 0 153 -16 31 -71 65 -121 75 -67 14 -253 14 -344 -1z"/>
<path d="M410 257 c-64 -64 -73 -88 -60 -151 13 -63 40 -96 79 -96 37 0 170
46 193 67 22 20 23 45 2 109 -26 76 -46 91 -140 108 -27 4 -38 -1 -74 -37z"/>
</g>
</svg>
